<mxfile host="app.diagrams.net" agent="Mozilla/5.0 (Windows NT 10.0; Win64; x64) AppleWebKit/537.36 (KHTML, like Gecko) Chrome/130.0.0.0 Safari/537.36" version="24.8.4">
  <diagram name="编码器校准" id="xJbsjqbS6_cpSzp8TfTc">
    <mxGraphModel dx="954" dy="558" grid="1" gridSize="10" guides="1" tooltips="1" connect="1" arrows="1" fold="1" page="1" pageScale="1" pageWidth="827" pageHeight="1169" math="0" shadow="0">
      <root>
        <mxCell id="0" />
        <mxCell id="1" parent="0" />
        <mxCell id="xKhOxyHbj1bSHCMPvie2-8" style="edgeStyle=orthogonalEdgeStyle;rounded=0;orthogonalLoop=1;jettySize=auto;html=1;exitX=0.5;exitY=1;exitDx=0;exitDy=0;entryX=0.5;entryY=0;entryDx=0;entryDy=0;" edge="1" parent="1" source="xKhOxyHbj1bSHCMPvie2-1" target="xKhOxyHbj1bSHCMPvie2-2">
          <mxGeometry relative="1" as="geometry" />
        </mxCell>
        <mxCell id="xKhOxyHbj1bSHCMPvie2-1" value="&lt;span style=&quot;color: rgb(51, 51, 51); font-family: Inconsolata, Consolas, Menlo, Monaco, &amp;quot;Andale Mono WT&amp;quot;, &amp;quot;Andale Mono&amp;quot;, &amp;quot;Lucida Console&amp;quot;, &amp;quot;DejaVu Sans Mono&amp;quot;, &amp;quot;Bitstream Vera Sans Mono&amp;quot;, &amp;quot;Courier New&amp;quot;, Courier, monospace; font-size: 15.2px; text-align: left; white-space: pre; background-color: rgb(247, 247, 247);&quot;&gt;start_angle = &lt;/span&gt;&lt;div&gt;&lt;span style=&quot;color: rgb(51, 51, 51); font-family: Inconsolata, Consolas, Menlo, Monaco, &amp;quot;Andale Mono WT&amp;quot;, &amp;quot;Andale Mono&amp;quot;, &amp;quot;Lucida Console&amp;quot;, &amp;quot;DejaVu Sans Mono&amp;quot;, &amp;quot;Bitstream Vera Sans Mono&amp;quot;, &amp;quot;Courier New&amp;quot;, Courier, monospace; font-size: 15.2px; text-align: left; white-space: pre; background-color: rgb(247, 247, 247);&quot;&gt;getAngle()&lt;/span&gt;&lt;/div&gt;" style="rounded=1;whiteSpace=wrap;html=1;" vertex="1" parent="1">
          <mxGeometry x="160" y="160" width="160" height="40" as="geometry" />
        </mxCell>
        <mxCell id="xKhOxyHbj1bSHCMPvie2-7" style="edgeStyle=orthogonalEdgeStyle;rounded=0;orthogonalLoop=1;jettySize=auto;html=1;exitX=0.5;exitY=1;exitDx=0;exitDy=0;entryX=0.5;entryY=0;entryDx=0;entryDy=0;" edge="1" parent="1" source="xKhOxyHbj1bSHCMPvie2-2" target="xKhOxyHbj1bSHCMPvie2-3">
          <mxGeometry relative="1" as="geometry" />
        </mxCell>
        <mxCell id="xKhOxyHbj1bSHCMPvie2-2" value="&lt;div style=&quot;text-align: left;&quot;&gt;&lt;font face=&quot;Inconsolata, Consolas, Menlo, Monaco, Andale Mono WT, Andale Mono, Lucida Console, DejaVu Sans Mono, Bitstream Vera Sans Mono, Courier New, Courier, monospace&quot; color=&quot;#333333&quot;&gt;&lt;span style=&quot;font-size: 15.2px; white-space: pre; background-color: rgb(247, 247, 247);&quot;&gt;正转一圈&lt;/span&gt;&lt;/font&gt;&lt;/div&gt;" style="rounded=1;whiteSpace=wrap;html=1;" vertex="1" parent="1">
          <mxGeometry x="160" y="220" width="160" height="40" as="geometry" />
        </mxCell>
        <mxCell id="xKhOxyHbj1bSHCMPvie2-9" style="edgeStyle=orthogonalEdgeStyle;rounded=0;orthogonalLoop=1;jettySize=auto;html=1;exitX=0.5;exitY=1;exitDx=0;exitDy=0;entryX=0.5;entryY=0;entryDx=0;entryDy=0;" edge="1" parent="1" source="xKhOxyHbj1bSHCMPvie2-3" target="xKhOxyHbj1bSHCMPvie2-4">
          <mxGeometry relative="1" as="geometry" />
        </mxCell>
        <mxCell id="xKhOxyHbj1bSHCMPvie2-3" value="&lt;div style=&quot;text-align: left;&quot;&gt;&lt;font face=&quot;Inconsolata, Consolas, Menlo, Monaco, Andale Mono WT, Andale Mono, Lucida Console, DejaVu Sans Mono, Bitstream Vera Sans Mono, Courier New, Courier, monospace&quot; color=&quot;#333333&quot;&gt;&lt;span style=&quot;font-size: 15.2px; white-space: pre; background-color: rgb(247, 247, 247);&quot;&gt;3/2Π + 2Π * i / 60&lt;/span&gt;&lt;/font&gt;&lt;/div&gt;&lt;div style=&quot;text-align: left;&quot;&gt;&lt;font face=&quot;Inconsolata, Consolas, Menlo, Monaco, Andale Mono WT, Andale Mono, Lucida Console, DejaVu Sans Mono, Bitstream Vera Sans Mono, Courier New, Courier, monospace&quot; color=&quot;#333333&quot;&gt;&lt;span style=&quot;font-size: 15.2px; white-space: pre; background-color: rgb(247, 247, 247);&quot;&gt;假设60度&lt;/span&gt;&lt;/font&gt;&lt;/div&gt;" style="rounded=1;whiteSpace=wrap;html=1;" vertex="1" parent="1">
          <mxGeometry x="160" y="280" width="160" height="40" as="geometry" />
        </mxCell>
        <mxCell id="xKhOxyHbj1bSHCMPvie2-10" style="edgeStyle=orthogonalEdgeStyle;rounded=0;orthogonalLoop=1;jettySize=auto;html=1;exitX=0.5;exitY=1;exitDx=0;exitDy=0;entryX=0.5;entryY=0;entryDx=0;entryDy=0;" edge="1" parent="1" source="xKhOxyHbj1bSHCMPvie2-4">
          <mxGeometry relative="1" as="geometry">
            <mxPoint x="240" y="480" as="targetPoint" />
          </mxGeometry>
        </mxCell>
        <mxCell id="xKhOxyHbj1bSHCMPvie2-4" value="&lt;div style=&quot;text-align: left;&quot;&gt;&lt;font face=&quot;Inconsolata, Consolas, Menlo, Monaco, Andale Mono WT, Andale Mono, Lucida Console, DejaVu Sans Mono, Bitstream Vera Sans Mono, Courier New, Courier, monospace&quot; color=&quot;#333333&quot;&gt;&lt;span style=&quot;font-size: 15.2px; white-space: pre; background-color: rgb(247, 247, 247);&quot;&gt;setPWM&lt;/span&gt;&lt;/font&gt;&lt;/div&gt;&lt;div style=&quot;text-align: left;&quot;&gt;&lt;span style=&quot;box-sizing: inherit; font-size: 15.2px; -webkit-tap-highlight-color: rgba(0, 0, 0, 0); text-size-adjust: none; scrollbar-color: hsla(var(--mono-hue), var(--mono-saturation), 50%, 0.3) hsla(var(--mono-hue), var(--mono-saturation), 50%, 0.1); scrollbar-width: thin; color: var(--code-theme-function); font-family: Inconsolata, Consolas, Menlo, Monaco, &amp;quot;Andale Mono WT&amp;quot;, &amp;quot;Andale Mono&amp;quot;, &amp;quot;Lucida Console&amp;quot;, &amp;quot;DejaVu Sans Mono&amp;quot;, &amp;quot;Bitstream Vera Sans Mono&amp;quot;, &amp;quot;Courier New&amp;quot;, Courier, monospace; white-space: pre; background-color: rgb(247, 247, 247);&quot; class=&quot;token function&quot;&gt;_delay&lt;/span&gt;&lt;span style=&quot;box-sizing: inherit; font-size: 15.2px; -webkit-tap-highlight-color: rgba(0, 0, 0, 0); text-size-adjust: none; scrollbar-color: hsla(var(--mono-hue), var(--mono-saturation), 50%, 0.3) hsla(var(--mono-hue), var(--mono-saturation), 50%, 0.1); scrollbar-width: thin; color: var(--code-theme-punctuation); font-family: Inconsolata, Consolas, Menlo, Monaco, &amp;quot;Andale Mono WT&amp;quot;, &amp;quot;Andale Mono&amp;quot;, &amp;quot;Lucida Console&amp;quot;, &amp;quot;DejaVu Sans Mono&amp;quot;, &amp;quot;Bitstream Vera Sans Mono&amp;quot;, &amp;quot;Courier New&amp;quot;, Courier, monospace; white-space: pre; background-color: rgb(247, 247, 247);&quot; class=&quot;token punctuation&quot;&gt;(&lt;/span&gt;&lt;span style=&quot;box-sizing: inherit; font-size: 15.2px; -webkit-tap-highlight-color: rgba(0, 0, 0, 0); text-size-adjust: none; scrollbar-color: hsla(var(--mono-hue), var(--mono-saturation), 50%, 0.3) hsla(var(--mono-hue), var(--mono-saturation), 50%, 0.1); scrollbar-width: thin; color: var(--code-theme-tag); font-family: Inconsolata, Consolas, Menlo, Monaco, &amp;quot;Andale Mono WT&amp;quot;, &amp;quot;Andale Mono&amp;quot;, &amp;quot;Lucida Console&amp;quot;, &amp;quot;DejaVu Sans Mono&amp;quot;, &amp;quot;Bitstream Vera Sans Mono&amp;quot;, &amp;quot;Courier New&amp;quot;, Courier, monospace; white-space: pre; background-color: rgb(247, 247, 247);&quot; class=&quot;token number&quot;&gt;200&lt;/span&gt;&lt;span style=&quot;box-sizing: inherit; font-size: 15.2px; -webkit-tap-highlight-color: rgba(0, 0, 0, 0); text-size-adjust: none; scrollbar-color: hsla(var(--mono-hue), var(--mono-saturation), 50%, 0.3) hsla(var(--mono-hue), var(--mono-saturation), 50%, 0.1); scrollbar-width: thin; color: var(--code-theme-punctuation); font-family: Inconsolata, Consolas, Menlo, Monaco, &amp;quot;Andale Mono WT&amp;quot;, &amp;quot;Andale Mono&amp;quot;, &amp;quot;Lucida Console&amp;quot;, &amp;quot;DejaVu Sans Mono&amp;quot;, &amp;quot;Bitstream Vera Sans Mono&amp;quot;, &amp;quot;Courier New&amp;quot;, Courier, monospace; white-space: pre; background-color: rgb(247, 247, 247);&quot; class=&quot;token punctuation&quot;&gt;)&lt;/span&gt;&lt;span style=&quot;box-sizing: inherit; font-size: 15.2px; -webkit-tap-highlight-color: rgba(0, 0, 0, 0); text-size-adjust: none; scrollbar-color: hsla(var(--mono-hue), var(--mono-saturation), 50%, 0.3) hsla(var(--mono-hue), var(--mono-saturation), 50%, 0.1); scrollbar-width: thin; color: var(--code-theme-punctuation); font-family: Inconsolata, Consolas, Menlo, Monaco, &amp;quot;Andale Mono WT&amp;quot;, &amp;quot;Andale Mono&amp;quot;, &amp;quot;Lucida Console&amp;quot;, &amp;quot;DejaVu Sans Mono&amp;quot;, &amp;quot;Bitstream Vera Sans Mono&amp;quot;, &amp;quot;Courier New&amp;quot;, Courier, monospace; white-space: pre; background-color: rgb(247, 247, 247);&quot; class=&quot;token punctuation&quot;&gt;;&lt;/span&gt;&lt;font face=&quot;Inconsolata, Consolas, Menlo, Monaco, Andale Mono WT, Andale Mono, Lucida Console, DejaVu Sans Mono, Bitstream Vera Sans Mono, Courier New, Courier, monospace&quot; color=&quot;#333333&quot;&gt;&lt;span style=&quot;font-size: 15.2px; white-space: pre; background-color: rgb(247, 247, 247);&quot;&gt;&lt;/span&gt;&lt;/font&gt;&lt;/div&gt;" style="rounded=1;whiteSpace=wrap;html=1;" vertex="1" parent="1">
          <mxGeometry x="160" y="340" width="160" height="40" as="geometry" />
        </mxCell>
        <mxCell id="xKhOxyHbj1bSHCMPvie2-6" style="edgeStyle=orthogonalEdgeStyle;rounded=0;orthogonalLoop=1;jettySize=auto;html=1;entryX=0;entryY=0.5;entryDx=0;entryDy=0;exitX=0;exitY=0.5;exitDx=0;exitDy=0;" edge="1" parent="1" source="xKhOxyHbj1bSHCMPvie2-11" target="xKhOxyHbj1bSHCMPvie2-2">
          <mxGeometry relative="1" as="geometry">
            <mxPoint x="160" y="500" as="sourcePoint" />
            <Array as="points">
              <mxPoint x="120" y="440" />
              <mxPoint x="120" y="240" />
            </Array>
          </mxGeometry>
        </mxCell>
        <mxCell id="xKhOxyHbj1bSHCMPvie2-13" style="edgeStyle=orthogonalEdgeStyle;rounded=0;orthogonalLoop=1;jettySize=auto;html=1;exitX=0.5;exitY=1;exitDx=0;exitDy=0;entryX=0.5;entryY=0;entryDx=0;entryDy=0;" edge="1" parent="1" source="xKhOxyHbj1bSHCMPvie2-11" target="xKhOxyHbj1bSHCMPvie2-12">
          <mxGeometry relative="1" as="geometry" />
        </mxCell>
        <mxCell id="xKhOxyHbj1bSHCMPvie2-11" value="i++ &amp;gt;= 500" style="rhombus;whiteSpace=wrap;html=1;" vertex="1" parent="1">
          <mxGeometry x="200" y="400" width="80" height="80" as="geometry" />
        </mxCell>
        <mxCell id="xKhOxyHbj1bSHCMPvie2-15" style="edgeStyle=orthogonalEdgeStyle;rounded=0;orthogonalLoop=1;jettySize=auto;html=1;exitX=0.5;exitY=1;exitDx=0;exitDy=0;" edge="1" parent="1" source="xKhOxyHbj1bSHCMPvie2-12" target="xKhOxyHbj1bSHCMPvie2-14">
          <mxGeometry relative="1" as="geometry" />
        </mxCell>
        <mxCell id="xKhOxyHbj1bSHCMPvie2-12" value="&lt;span style=&quot;color: rgb(51, 51, 51); font-family: Inconsolata, Consolas, Menlo, Monaco, &amp;quot;Andale Mono WT&amp;quot;, &amp;quot;Andale Mono&amp;quot;, &amp;quot;Lucida Console&amp;quot;, &amp;quot;DejaVu Sans Mono&amp;quot;, &amp;quot;Bitstream Vera Sans Mono&amp;quot;, &amp;quot;Courier New&amp;quot;, Courier, monospace; font-size: 15.2px; text-align: left; white-space: pre; background-color: rgb(247, 247, 247);&quot;&gt;middle_angle = &lt;/span&gt;&lt;div&gt;&lt;span style=&quot;color: rgb(51, 51, 51); font-family: Inconsolata, Consolas, Menlo, Monaco, &amp;quot;Andale Mono WT&amp;quot;, &amp;quot;Andale Mono&amp;quot;, &amp;quot;Lucida Console&amp;quot;, &amp;quot;DejaVu Sans Mono&amp;quot;, &amp;quot;Bitstream Vera Sans Mono&amp;quot;, &amp;quot;Courier New&amp;quot;, Courier, monospace; font-size: 15.2px; text-align: left; white-space: pre; background-color: rgb(247, 247, 247);&quot;&gt;getAngle()&lt;/span&gt;&lt;/div&gt;" style="rounded=1;whiteSpace=wrap;html=1;" vertex="1" parent="1">
          <mxGeometry x="160" y="520" width="160" height="40" as="geometry" />
        </mxCell>
        <mxCell id="xKhOxyHbj1bSHCMPvie2-17" style="edgeStyle=orthogonalEdgeStyle;rounded=0;orthogonalLoop=1;jettySize=auto;html=1;exitX=0.5;exitY=1;exitDx=0;exitDy=0;" edge="1" parent="1" source="xKhOxyHbj1bSHCMPvie2-14" target="xKhOxyHbj1bSHCMPvie2-16">
          <mxGeometry relative="1" as="geometry" />
        </mxCell>
        <mxCell id="xKhOxyHbj1bSHCMPvie2-14" value="&lt;div style=&quot;text-align: left;&quot;&gt;&lt;font face=&quot;Inconsolata, Consolas, Menlo, Monaco, Andale Mono WT, Andale Mono, Lucida Console, DejaVu Sans Mono, Bitstream Vera Sans Mono, Courier New, Courier, monospace&quot; color=&quot;#333333&quot;&gt;&lt;span style=&quot;font-size: 15.2px; white-space: pre; background-color: rgb(247, 247, 247);&quot;&gt;反转一圈&lt;/span&gt;&lt;/font&gt;&lt;/div&gt;" style="rounded=1;whiteSpace=wrap;html=1;" vertex="1" parent="1">
          <mxGeometry x="160" y="585" width="160" height="40" as="geometry" />
        </mxCell>
        <mxCell id="xKhOxyHbj1bSHCMPvie2-19" style="edgeStyle=orthogonalEdgeStyle;rounded=0;orthogonalLoop=1;jettySize=auto;html=1;exitX=0.5;exitY=1;exitDx=0;exitDy=0;entryX=0.5;entryY=0;entryDx=0;entryDy=0;" edge="1" parent="1" source="xKhOxyHbj1bSHCMPvie2-16" target="xKhOxyHbj1bSHCMPvie2-18">
          <mxGeometry relative="1" as="geometry" />
        </mxCell>
        <mxCell id="xKhOxyHbj1bSHCMPvie2-16" value="&lt;div style=&quot;text-align: left;&quot;&gt;&lt;font face=&quot;Inconsolata, Consolas, Menlo, Monaco, Andale Mono WT, Andale Mono, Lucida Console, DejaVu Sans Mono, Bitstream Vera Sans Mono, Courier New, Courier, monospace&quot; color=&quot;#333333&quot;&gt;&lt;span style=&quot;font-size: 15.2px; white-space: pre; background-color: rgb(247, 247, 247);&quot;&gt;3/2Π + 2Π * i / 60&lt;/span&gt;&lt;/font&gt;&lt;/div&gt;&lt;div style=&quot;text-align: left;&quot;&gt;&lt;font face=&quot;Inconsolata, Consolas, Menlo, Monaco, Andale Mono WT, Andale Mono, Lucida Console, DejaVu Sans Mono, Bitstream Vera Sans Mono, Courier New, Courier, monospace&quot; color=&quot;#333333&quot;&gt;&lt;span style=&quot;font-size: 15.2px; white-space: pre; background-color: rgb(247, 247, 247);&quot;&gt;假设60度&lt;/span&gt;&lt;/font&gt;&lt;/div&gt;" style="rounded=1;whiteSpace=wrap;html=1;" vertex="1" parent="1">
          <mxGeometry x="160" y="650" width="160" height="40" as="geometry" />
        </mxCell>
        <mxCell id="xKhOxyHbj1bSHCMPvie2-21" style="edgeStyle=orthogonalEdgeStyle;rounded=0;orthogonalLoop=1;jettySize=auto;html=1;exitX=0.5;exitY=1;exitDx=0;exitDy=0;entryX=0.5;entryY=0;entryDx=0;entryDy=0;" edge="1" parent="1" source="xKhOxyHbj1bSHCMPvie2-18" target="xKhOxyHbj1bSHCMPvie2-20">
          <mxGeometry relative="1" as="geometry" />
        </mxCell>
        <mxCell id="xKhOxyHbj1bSHCMPvie2-18" value="&lt;div style=&quot;text-align: left;&quot;&gt;&lt;font face=&quot;Inconsolata, Consolas, Menlo, Monaco, Andale Mono WT, Andale Mono, Lucida Console, DejaVu Sans Mono, Bitstream Vera Sans Mono, Courier New, Courier, monospace&quot; color=&quot;#333333&quot;&gt;&lt;span style=&quot;font-size: 15.2px; white-space: pre; background-color: rgb(247, 247, 247);&quot;&gt;setPWM&lt;/span&gt;&lt;/font&gt;&lt;/div&gt;&lt;div style=&quot;text-align: left;&quot;&gt;&lt;span style=&quot;box-sizing: inherit; font-size: 15.2px; -webkit-tap-highlight-color: rgba(0, 0, 0, 0); text-size-adjust: none; scrollbar-color: hsla(var(--mono-hue), var(--mono-saturation), 50%, 0.3) hsla(var(--mono-hue), var(--mono-saturation), 50%, 0.1); scrollbar-width: thin; color: var(--code-theme-function); font-family: Inconsolata, Consolas, Menlo, Monaco, &amp;quot;Andale Mono WT&amp;quot;, &amp;quot;Andale Mono&amp;quot;, &amp;quot;Lucida Console&amp;quot;, &amp;quot;DejaVu Sans Mono&amp;quot;, &amp;quot;Bitstream Vera Sans Mono&amp;quot;, &amp;quot;Courier New&amp;quot;, Courier, monospace; white-space: pre; background-color: rgb(247, 247, 247);&quot; class=&quot;token function&quot;&gt;_delay&lt;/span&gt;&lt;span style=&quot;box-sizing: inherit; font-size: 15.2px; -webkit-tap-highlight-color: rgba(0, 0, 0, 0); text-size-adjust: none; scrollbar-color: hsla(var(--mono-hue), var(--mono-saturation), 50%, 0.3) hsla(var(--mono-hue), var(--mono-saturation), 50%, 0.1); scrollbar-width: thin; color: var(--code-theme-punctuation); font-family: Inconsolata, Consolas, Menlo, Monaco, &amp;quot;Andale Mono WT&amp;quot;, &amp;quot;Andale Mono&amp;quot;, &amp;quot;Lucida Console&amp;quot;, &amp;quot;DejaVu Sans Mono&amp;quot;, &amp;quot;Bitstream Vera Sans Mono&amp;quot;, &amp;quot;Courier New&amp;quot;, Courier, monospace; white-space: pre; background-color: rgb(247, 247, 247);&quot; class=&quot;token punctuation&quot;&gt;(&lt;/span&gt;&lt;span style=&quot;box-sizing: inherit; font-size: 15.2px; -webkit-tap-highlight-color: rgba(0, 0, 0, 0); text-size-adjust: none; scrollbar-color: hsla(var(--mono-hue), var(--mono-saturation), 50%, 0.3) hsla(var(--mono-hue), var(--mono-saturation), 50%, 0.1); scrollbar-width: thin; color: var(--code-theme-tag); font-family: Inconsolata, Consolas, Menlo, Monaco, &amp;quot;Andale Mono WT&amp;quot;, &amp;quot;Andale Mono&amp;quot;, &amp;quot;Lucida Console&amp;quot;, &amp;quot;DejaVu Sans Mono&amp;quot;, &amp;quot;Bitstream Vera Sans Mono&amp;quot;, &amp;quot;Courier New&amp;quot;, Courier, monospace; white-space: pre; background-color: rgb(247, 247, 247);&quot; class=&quot;token number&quot;&gt;200&lt;/span&gt;&lt;span style=&quot;box-sizing: inherit; font-size: 15.2px; -webkit-tap-highlight-color: rgba(0, 0, 0, 0); text-size-adjust: none; scrollbar-color: hsla(var(--mono-hue), var(--mono-saturation), 50%, 0.3) hsla(var(--mono-hue), var(--mono-saturation), 50%, 0.1); scrollbar-width: thin; color: var(--code-theme-punctuation); font-family: Inconsolata, Consolas, Menlo, Monaco, &amp;quot;Andale Mono WT&amp;quot;, &amp;quot;Andale Mono&amp;quot;, &amp;quot;Lucida Console&amp;quot;, &amp;quot;DejaVu Sans Mono&amp;quot;, &amp;quot;Bitstream Vera Sans Mono&amp;quot;, &amp;quot;Courier New&amp;quot;, Courier, monospace; white-space: pre; background-color: rgb(247, 247, 247);&quot; class=&quot;token punctuation&quot;&gt;)&lt;/span&gt;&lt;span style=&quot;box-sizing: inherit; font-size: 15.2px; -webkit-tap-highlight-color: rgba(0, 0, 0, 0); text-size-adjust: none; scrollbar-color: hsla(var(--mono-hue), var(--mono-saturation), 50%, 0.3) hsla(var(--mono-hue), var(--mono-saturation), 50%, 0.1); scrollbar-width: thin; color: var(--code-theme-punctuation); font-family: Inconsolata, Consolas, Menlo, Monaco, &amp;quot;Andale Mono WT&amp;quot;, &amp;quot;Andale Mono&amp;quot;, &amp;quot;Lucida Console&amp;quot;, &amp;quot;DejaVu Sans Mono&amp;quot;, &amp;quot;Bitstream Vera Sans Mono&amp;quot;, &amp;quot;Courier New&amp;quot;, Courier, monospace; white-space: pre; background-color: rgb(247, 247, 247);&quot; class=&quot;token punctuation&quot;&gt;;&lt;/span&gt;&lt;font face=&quot;Inconsolata, Consolas, Menlo, Monaco, Andale Mono WT, Andale Mono, Lucida Console, DejaVu Sans Mono, Bitstream Vera Sans Mono, Courier New, Courier, monospace&quot; color=&quot;#333333&quot;&gt;&lt;span style=&quot;font-size: 15.2px; white-space: pre; background-color: rgb(247, 247, 247);&quot;&gt;&lt;/span&gt;&lt;/font&gt;&lt;/div&gt;" style="rounded=1;whiteSpace=wrap;html=1;" vertex="1" parent="1">
          <mxGeometry x="160" y="710" width="160" height="40" as="geometry" />
        </mxCell>
        <mxCell id="xKhOxyHbj1bSHCMPvie2-23" style="edgeStyle=orthogonalEdgeStyle;rounded=0;orthogonalLoop=1;jettySize=auto;html=1;exitX=0;exitY=0.5;exitDx=0;exitDy=0;entryX=0;entryY=0.5;entryDx=0;entryDy=0;" edge="1" parent="1" source="xKhOxyHbj1bSHCMPvie2-20" target="xKhOxyHbj1bSHCMPvie2-14">
          <mxGeometry relative="1" as="geometry">
            <Array as="points">
              <mxPoint x="120" y="810" />
              <mxPoint x="120" y="605" />
            </Array>
          </mxGeometry>
        </mxCell>
        <mxCell id="xKhOxyHbj1bSHCMPvie2-27" style="edgeStyle=orthogonalEdgeStyle;rounded=0;orthogonalLoop=1;jettySize=auto;html=1;exitX=0.5;exitY=1;exitDx=0;exitDy=0;entryX=0.5;entryY=0;entryDx=0;entryDy=0;" edge="1" parent="1" source="xKhOxyHbj1bSHCMPvie2-20" target="xKhOxyHbj1bSHCMPvie2-24">
          <mxGeometry relative="1" as="geometry" />
        </mxCell>
        <mxCell id="xKhOxyHbj1bSHCMPvie2-20" value="i-- -&amp;lt; 0" style="rhombus;whiteSpace=wrap;html=1;" vertex="1" parent="1">
          <mxGeometry x="200" y="770" width="80" height="80" as="geometry" />
        </mxCell>
        <mxCell id="xKhOxyHbj1bSHCMPvie2-26" style="edgeStyle=orthogonalEdgeStyle;rounded=0;orthogonalLoop=1;jettySize=auto;html=1;exitX=0.5;exitY=1;exitDx=0;exitDy=0;entryX=0.5;entryY=0;entryDx=0;entryDy=0;" edge="1" parent="1" source="xKhOxyHbj1bSHCMPvie2-24" target="xKhOxyHbj1bSHCMPvie2-25">
          <mxGeometry relative="1" as="geometry" />
        </mxCell>
        <mxCell id="xKhOxyHbj1bSHCMPvie2-29" style="edgeStyle=orthogonalEdgeStyle;rounded=0;orthogonalLoop=1;jettySize=auto;html=1;exitX=1;exitY=0.5;exitDx=0;exitDy=0;entryX=0;entryY=0.5;entryDx=0;entryDy=0;" edge="1" parent="1" source="xKhOxyHbj1bSHCMPvie2-24" target="xKhOxyHbj1bSHCMPvie2-28">
          <mxGeometry relative="1" as="geometry" />
        </mxCell>
        <mxCell id="xKhOxyHbj1bSHCMPvie2-24" value="&lt;span style=&quot;color: rgb(51, 51, 51); font-family: Inconsolata, Consolas, Menlo, Monaco, &amp;quot;Andale Mono WT&amp;quot;, &amp;quot;Andale Mono&amp;quot;, &amp;quot;Lucida Console&amp;quot;, &amp;quot;DejaVu Sans Mono&amp;quot;, &amp;quot;Bitstream Vera Sans Mono&amp;quot;, &amp;quot;Courier New&amp;quot;, Courier, monospace; font-size: 15.2px; text-align: left; white-space: pre; background-color: rgb(247, 247, 247);&quot;&gt;start_angle &amp;lt; &lt;/span&gt;&lt;div&gt;&lt;span style=&quot;color: rgb(51, 51, 51); font-family: Inconsolata, Consolas, Menlo, Monaco, &amp;quot;Andale Mono WT&amp;quot;, &amp;quot;Andale Mono&amp;quot;, &amp;quot;Lucida Console&amp;quot;, &amp;quot;DejaVu Sans Mono&amp;quot;, &amp;quot;Bitstream Vera Sans Mono&amp;quot;, &amp;quot;Courier New&amp;quot;, Courier, monospace; font-size: 15.2px; text-align: left; white-space: pre; background-color: rgb(247, 247, 247);&quot;&gt;middle_angle&lt;/span&gt;&lt;/div&gt;" style="rhombus;whiteSpace=wrap;html=1;" vertex="1" parent="1">
          <mxGeometry x="160" y="880" width="160" height="160" as="geometry" />
        </mxCell>
        <mxCell id="xKhOxyHbj1bSHCMPvie2-25" value="CCW&lt;div&gt;逆时针&lt;/div&gt;" style="rounded=1;whiteSpace=wrap;html=1;" vertex="1" parent="1">
          <mxGeometry x="180" y="1080" width="120" height="40" as="geometry" />
        </mxCell>
        <mxCell id="xKhOxyHbj1bSHCMPvie2-28" value="CW&lt;div&gt;顺时针&lt;/div&gt;" style="rounded=1;whiteSpace=wrap;html=1;" vertex="1" parent="1">
          <mxGeometry x="360" y="940" width="120" height="40" as="geometry" />
        </mxCell>
      </root>
    </mxGraphModel>
  </diagram>
</mxfile>
